{"title":"The Wronged Man (2010) DVDRip XviD-PrisM","uid":5682117,"size":735410408,"categoryP":"video","categoryS":"movies","magnet":"?xt=urn:btih:5d8e9976d4f4b9ee0c7d745c224d5e3800296428&amp;dn=The+Wronged+Man+%282010%29+DVDRip+XviD-PrisM&amp;tr=udp%3A%2F%2Ftracker.openbittorrent.com%3A80&amp;tr=udp%3A%2F%2Fopen.demonii.com%3A1337&amp;tr=udp%3A%2F%2Ftracker.coppersurfer.tk%3A6969&amp;tr=udp%3A%2F%2Fexodus.desync.com%3A6969","seeders":1,"leechers":0,"uploader":"CODYBOSS1969","files":3,"time":1278858051,"description":"General\nComplete name : The Wronged Man (2010) DVDRip XviD-PrisM[PrisM-TWM-DVDRip.avi]\nFormat : AVI\nFormat/Info : Audio Video Interleave\nFile size : 701 MiB\nDuration : 1h 28mn\nOverall bit rate : 1 104 Kbps\nWriting application : VirtualDubMod 1.5.10.2 (build 2540/release)\nWriting library : VirtualDubMod build 2540/release\n\nVideo\nFormat : MPEG-4 Visual\nFormat profile : Simple@L3\nFormat settings, BVOP : No\nFormat settings, QPel : No\nFormat settings, GMC : No warppoints\nFormat settings, Matrix : Default\nCodec ID : XVID\nCodec ID/Hint : XviD\nDuration : 1h 28mn\nBit rate : 962 Kbps\nWidth : 656 pixels\nHeight : 368 pixels\nDisplay aspect ratio : 16/9\nFrame rate : 23.976 fps\nResolution : 24 bits\nColorimetry : 4:2:0\nScan type : Progressive\nBits/(Pixel*Frame) : 0.166\nStream size : 611 MiB (87%)\nWriting library : XviD 50\n\nAudio\nFormat : MPEG Audio\nFormat version : Version 1\nFormat profile : Layer 3\nCodec ID : 55\nCodec ID/Hint : MP3\nDuration : 1h 28mn\nBit rate mode : Variable\nBit rate : 129 Kbps\nNominal bit rate : 128 Kbps\nChannel(s) : 2 channels\nSampling rate : 48.0 KHz\nResolution : 16 bits\nStream size : 82.1 MiB (12%)\nAlignment : Aligned on interleaves\nInterleave, duration : 24 ms (0.58 video frame)\nInterleave, preload duration : 142 ms\nWriting library : LAME3.90.\nEncoding settings : ABR\n\n\nIMDB link: http://www.imdb.com/title/tt1390543/\n","torrent":{"xt":"urn:btih:5d8e9976d4f4b9ee0c7d745c224d5e3800296428","amp;dn":"The+Wronged+Man+%282010%29+DVDRip+XviD-PrisM","amp;tr":["udp%3A%2F%2Ftracker.openbittorrent.com%3A80","udp%3A%2F%2Fopen.demonii.com%3A1337","udp%3A%2F%2Ftracker.coppersurfer.tk%3A6969","udp%3A%2F%2Fexodus.desync.com%3A6969"],"infoHash":"5d8e9976d4f4b9ee0c7d745c224d5e3800296428","infoHashBuffer":{"type":"Buffer","data":[93,142,153,118,212,244,185,238,12,125,116,92,34,77,94,56,0,41,100,40]},"announce":[],"urlList":[]}}